<svg id="Layer_1" data-name="Layer 1" xmlns="http://www.w3.org/2000/svg" viewBox="0 0 272.04 339.5"><defs><style>.cls-1{fill:#2d2d2d;}</style></defs><title>add</title><path class="cls-1" d="M41.19,339.5A41.23,41.23,0,0,1,0,298.31c0-55.92,35.15-107,87.5-127L96,168l-7.61-4.91a88.6,88.6,0,1,1,95.36,0L176.08,168l8.46,3.24c52.34,20.06,87.5,71.11,87.5,127a41.23,41.23,0,0,1-41.18,41.19ZM136,177.19A121.27,121.27,0,0,0,14.89,298.31a26.33,26.33,0,0,0,26.3,26.3H230.86a26.32,26.32,0,0,0,26.28-26.3A121.26,121.26,0,0,0,136,177.19m0-162.31a73.71,73.71,0,1,0,73.71,73.71A73.79,73.79,0,0,0,136,14.88"/></svg>